<?xml version="1.0" standalone="no"?>
<!DOCTYPE svg PUBLIC "-//W3C//DTD SVG 20010904//EN"
 "http://www.w3.org/TR/2001/REC-SVG-20010904/DTD/svg10.dtd">
<svg version="1.0" xmlns="http://www.w3.org/2000/svg"
 width="1024.000000pt" height="1024.000000pt" viewBox="0 0 1024.000000 1024.000000"
 preserveAspectRatio="xMidYMid meet">

<g transform="translate(0.000000,1024.000000) scale(0.100000,-0.100000)"
fill="#000000" stroke="none">
<path d="M5106 8838 c-13 -29 -63 -123 -113 -209 -114 -199 -138 -273 -138
-424 0 -124 10 -166 57 -245 32 -53 132 -145 147 -136 4 3 8 29 9 58 4 110 15
177 33 207 10 17 23 31 29 31 30 0 69 -135 70 -237 0 -28 4 -54 9 -58 15 -9
125 99 154 152 99 183 70 401 -89 669 -33 55 -75 133 -94 172 -19 40 -38 72
-42 72 -5 0 -19 -24 -32 -52z"/>
<path d="M4066 7750 l-99 -5 2 -75 c4 -146 51 -331 121 -475 164 -339 463
-572 843 -655 l57 -13 0 -114 0 -114 -47 6 c-273 38 -570 193 -788 410 -242
241 -382 559 -403 915 l-7 115 -137 3 -138 3 0 -68 c1 -226 68 -490 187 -732
112 -228 283 -430 512 -602 185 -139 470 -265 686 -304 50 -8 100 -18 113 -21
l22 -4 0 -265 c0 -246 -1 -265 -17 -265 -10 0 -58 7 -108 14 -323 52 -578 45
-935 -26 -85 -16 -164 -30 -175 -31 -19 0 -218 31 -242 38 -8 3 11 52 53 141
36 75 71 162 79 192 16 60 21 257 7 266 -20 12 -151 -203 -271 -441 -34 -68
-63 -123 -66 -123 -3 0 -10 20 -16 45 -22 87 -105 115 -155 52 l-26 -33 -33
33 c-61 61 -120 36 -155 -67 -19 -58 -24 -55 -59 30 -13 30 -49 109 -81 176
-54 111 -62 123 -112 156 -55 38 -174 85 -185 75 -3 -4 28 -78 69 -164 95
-198 161 -344 156 -347 -11 -8 -189 -26 -209 -22 -109 26 -562 60 -709 54
l-75 -3 -3 -124 -3 -124 278 6 c154 3 338 13 412 22 125 15 142 15 237 -1 56
-9 107 -20 114 -24 8 -5 -12 -53 -69 -161 -95 -183 -129 -270 -138 -352 l-6
-60 59 42 c120 85 147 119 230 285 l79 155 31 -35 c44 -48 84 -47 135 4 l38
39 12 -29 c14 -35 37 -48 80 -48 25 0 41 9 71 42 21 23 39 39 41 37 2 -2 32
-69 66 -149 89 -203 114 -250 153 -286 42 -39 157 -108 166 -100 11 11 -77
262 -150 429 -38 86 -67 161 -64 166 3 5 56 16 118 25 111 17 116 17 223 -3
291 -55 491 -65 744 -35 116 13 340 53 394 70 16 5 17 -11 17 -243 l0 -248
-116 -2 c-176 -3 -272 -34 -361 -116 -44 -40 -93 -121 -93 -152 0 -13 79 -15
715 -15 639 0 715 2 715 15 0 49 -107 173 -181 211 -65 32 -156 51 -287 60
l-112 7 0 218 c0 121 3 219 8 219 4 0 48 -7 97 -15 132 -23 371 -30 495 -16
58 7 162 23 233 37 100 19 135 23 165 15 73 -20 280 -50 417 -62 215 -18 469
-2 824 51 126 20 141 20 230 6 137 -22 343 -38 431 -34 l75 3 3 97 c4 143 10
138 -162 138 -79 0 -202 -5 -275 -11 -120 -10 -140 -9 -239 10 -192 38 -284
51 -454 63 -258 19 -584 -8 -829 -67 -64 -16 -70 -16 -185 9 -256 53 -325 60
-587 61 l-247 0 2 244 3 244 106 18 c363 61 734 268 983 547 199 224 352 535
401 819 23 133 37 325 25 337 -7 7 -63 11 -138 11 l-127 0 -6 -110 c-9 -151
-25 -239 -65 -362 -104 -321 -305 -587 -579 -766 -160 -104 -386 -189 -539
-204 l-66 -6 0 110 0 110 63 12 c213 41 420 147 581 301 223 211 358 502 373
803 l6 107 -109 1 c-129 2 -147 0 -155 -13 -3 -5 -9 -53 -12 -106 -24 -402
-316 -746 -704 -831 l-43 -9 0 114 0 114 28 11 c87 35 194 94 245 135 70 56
147 155 188 241 37 77 71 229 67 297 l-3 51 -130 0 -130 0 -6 -65 c-11 -118
-49 -215 -111 -286 -35 -40 -113 -94 -135 -94 -10 0 -13 33 -13 150 l0 151
-137 -3 -138 -3 -3 -147 c-2 -126 -5 -148 -18 -148 -23 0 -95 52 -138 100 -62
69 -87 133 -113 295 l-8 50 -132 3 -133 3 0 -61 c0 -92 27 -195 78 -300 39
-81 60 -109 136 -185 93 -93 164 -139 269 -174 l52 -18 3 -116 c2 -72 -1 -117
-7 -117 -6 0 -47 12 -93 26 -297 93 -514 311 -608 609 -12 40 -26 125 -33 198
-11 121 -12 127 -33 127 -12 0 -28 1 -36 3 -7 2 -58 0 -112 -3z m1625 -2370
c-24 -4 -71 -4 -105 0 -53 6 -48 7 44 7 76 0 93 -1 61 -7z m-1303 -17 c-21 -2
-57 -2 -80 0 -24 2 -7 4 37 4 44 0 63 -2 43 -4z m2545 0 c-40 -2 -106 -2 -145
0 -40 1 -8 3 72 3 80 0 112 -2 73 -3z"/>
<path d="M2763 3861 c-97 -33 -167 -109 -199 -216 -21 -72 -29 -236 -15 -325
24 -152 92 -247 210 -290 77 -30 224 -25 292 8 139 69 198 212 186 452 -9 165
-51 267 -138 330 -83 60 -230 78 -336 41z m215 -148 c15 -11 38 -40 52 -64 24
-42 25 -52 25 -199 0 -138 -2 -160 -22 -202 -27 -60 -71 -88 -136 -88 -117 0
-167 71 -175 244 -7 167 22 268 89 314 28 20 43 23 87 20 32 -3 64 -13 80 -25z"/>
<path d="M4227 3866 c-97 -27 -181 -113 -212 -219 -22 -73 -30 -228 -16 -317
23 -149 112 -272 222 -304 69 -21 183 -20 250 1 74 24 148 98 178 178 34 89
47 227 33 337 -19 154 -82 257 -188 309 -60 28 -193 36 -267 15z m201 -153
c15 -10 38 -41 52 -69 23 -46 25 -59 25 -199 0 -133 -2 -155 -22 -197 -29 -63
-70 -88 -145 -88 -101 0 -146 59 -158 209 -21 251 39 378 173 368 27 -3 60
-13 75 -24z"/>
<path d="M5045 3863 c-69 -25 -107 -54 -144 -110 -46 -69 -63 -134 -68 -265
-11 -240 44 -378 180 -450 37 -20 57 -23 157 -23 109 0 118 2 169 30 29 16 66
45 82 65 31 37 65 116 70 165 l4 30 -88 3 -87 3 -6 -31 c-4 -17 -23 -49 -43
-71 -32 -36 -43 -42 -87 -46 -64 -7 -105 13 -142 69 -27 41 -27 43 -27 212 0
147 3 176 19 209 39 79 139 111 206 65 36 -24 65 -71 75 -120 5 -28 6 -28 91
-28 l87 0 -7 42 c-17 107 -88 207 -173 244 -59 25 -206 29 -268 7z"/>
<path d="M7370 3865 c-58 -18 -128 -77 -151 -129 -24 -54 -24 -148 0 -202 30
-67 81 -100 224 -146 103 -33 133 -47 153 -71 34 -40 28 -90 -16 -129 -26 -24
-39 -28 -89 -28 -49 0 -65 4 -90 26 -18 15 -33 39 -37 60 l-6 34 -90 0 -90 0
7 -37 c29 -161 144 -240 335 -231 176 8 270 99 270 261 0 126 -63 191 -245
253 -135 45 -175 72 -175 117 1 58 49 97 120 97 51 0 95 -39 105 -93 l7 -37
89 0 89 0 0 33 c0 86 -88 194 -181 221 -64 19 -168 19 -229 1z"/>
<path d="M1730 3445 l0 -425 90 0 90 0 0 185 0 185 150 0 150 0 0 -185 0 -185
90 0 90 0 0 425 0 425 -90 0 -90 0 0 -170 0 -171 -147 3 -148 3 -3 168 -2 167
-90 0 -90 0 0 -425z"/>
<path d="M3400 3445 l0 -425 253 2 252 3 3 73 3 72 -166 0 -165 0 0 350 0 350
-90 0 -90 0 0 -425z"/>
<path d="M5796 3682 c-33 -103 -94 -294 -137 -425 l-77 -238 91 3 92 3 24 83
24 82 134 0 c73 0 136 1 141 3 4 1 18 -37 32 -85 l25 -88 88 0 c63 0 87 3 87
12 0 7 -11 47 -24 88 -48 146 -236 719 -242 734 -5 13 -25 16 -103 16 l-96 0
-59 -188z m188 -118 c14 -56 35 -127 46 -158 10 -31 16 -56 12 -57 -22 -2
-177 3 -180 6 -2 2 15 69 37 149 23 81 41 154 41 163 0 37 18 -6 44 -103z"/>
<path d="M6408 3563 c1 -172 7 -326 13 -348 23 -87 110 -171 202 -196 66 -18
224 -7 273 18 54 29 107 89 130 149 17 44 19 79 19 364 l0 315 -82 3 -83 3 0
-283 c0 -168 -4 -298 -11 -321 -5 -21 -23 -52 -38 -69 -24 -27 -36 -32 -87
-35 -46 -3 -66 0 -91 16 -65 41 -67 54 -73 386 l-5 300 -85 3 -85 3 3 -308z"/>
<path d="M7889 3863 c-1 -8 -1 -106 0 -130 1 -10 29 -13 106 -13 l105 0 0
-350 0 -350 90 0 90 0 0 350 0 350 105 0 105 0 0 75 0 75 -300 0 c-165 0 -300
-3 -301 -7z"/>
<path d="M4983 2621 c-129 -44 -193 -138 -214 -312 -22 -186 16 -355 98 -436
63 -64 119 -86 228 -91 108 -5 184 19 247 76 90 82 132 249 108 435 -15 124
-42 190 -104 252 -88 90 -234 121 -363 76z m208 -144 c19 -12 45 -44 59 -72
23 -46 25 -60 25 -195 0 -138 -1 -148 -27 -201 -34 -69 -80 -95 -154 -86 -60
6 -93 31 -124 93 -23 46 -25 59 -25 199 0 134 2 154 22 190 22 41 57 78 83 88
38 14 108 6 141 -16z"/>
<path d="M2140 2210 l0 -420 80 0 80 0 0 273 c0 314 -9 311 96 35 l59 -158 67
0 66 0 50 128 c27 70 60 159 73 197 l24 70 3 -273 2 -273 83 3 82 3 3 418 2
417 -99 0 -99 0 -35 -97 c-94 -257 -145 -383 -156 -383 -6 0 -52 123 -141 370
l-38 105 -101 3 -101 3 0 -421z"/>
<path d="M3122 2213 l3 -418 253 -3 252 -2 0 75 0 75 -170 0 -170 0 0 105 0
105 150 0 150 0 0 70 0 70 -150 0 -150 0 0 100 0 100 170 0 170 0 0 70 0 70
-255 0 -255 0 2 -417z"/>
<path d="M3820 2210 l0 -420 80 0 80 0 2 273 3 272 37 -100 c20 -55 54 -144
74 -198 l37 -98 71 3 70 3 69 180 c38 99 72 189 77 200 5 12 9 -91 9 -257 l1
-278 85 0 85 0 0 420 0 420 -104 0 -104 0 -20 -57 c-55 -163 -166 -433 -173
-421 -6 11 -163 430 -174 466 -3 8 -33 12 -105 12 l-100 0 0 -420z"/>
<path d="M5630 2211 l0 -421 85 0 84 0 3 158 3 157 53 0 53 0 64 -153 c35 -85
65 -156 68 -158 2 -3 47 -3 99 -2 l95 3 -82 166 -83 166 47 34 c64 47 91 104
91 192 0 39 -5 87 -12 108 -16 56 -69 113 -130 140 -49 21 -69 24 -245 27
l-193 4 0 -421z m350 264 c42 -22 60 -53 60 -105 0 -94 -49 -130 -177 -130
l-63 0 0 125 0 125 75 0 c48 0 87 -6 105 -15z"/>
<path d="M6400 2210 l0 -421 83 3 82 3 0 415 0 415 -82 3 -83 3 0 -421z"/>
<path d="M6968 2608 c-8 -36 -240 -771 -255 -806 -4 -10 15 -12 88 -10 l93 3
27 85 26 85 128 0 129 0 27 -85 27 -85 86 -3 c67 -2 86 0 86 11 0 7 -55 182
-121 388 -67 206 -126 389 -132 407 l-10 32 -98 0 c-92 0 -97 -1 -101 -22z
m158 -356 c19 -62 37 -119 41 -127 4 -13 -11 -15 -92 -15 -87 0 -96 2 -91 18
3 9 17 60 31 112 15 52 34 120 42 150 l16 55 9 -40 c5 -22 24 -91 44 -153z"/>
<path d="M7577 2623 c-4 -3 -7 -192 -7 -420 l0 -413 252 2 251 3 5 73 4 72
-166 0 -166 0 0 345 0 345 -83 0 c-46 0 -87 -3 -90 -7z"/>
</g>
</svg>
